<mxfile host="Electron" modified="2024-05-26T09:36:55.070Z" agent="Mozilla/5.0 (Macintosh; Intel Mac OS X 10_15_7) AppleWebKit/537.36 (KHTML, like Gecko) draw.io/23.1.5 Chrome/120.0.6099.109 Electron/28.1.0 Safari/537.36" etag="qWr3Pn5LwV9wgpWgywvW" version="23.1.5" type="device">
  <diagram name="第 1 页" id="DxIksqTafriaKp2i6kRL">
    <mxGraphModel dx="1025" dy="854" grid="0" gridSize="10" guides="1" tooltips="1" connect="1" arrows="1" fold="1" page="1" pageScale="1" pageWidth="750" pageHeight="240" math="0" shadow="0">
      <root>
        <mxCell id="0" />
        <mxCell id="1" parent="0" />
        <mxCell id="ElyzJCMLIEPiKHhhXCeB-13" style="edgeStyle=orthogonalEdgeStyle;rounded=0;orthogonalLoop=1;jettySize=auto;html=1;entryX=0;entryY=0.5;entryDx=0;entryDy=0;" parent="1" source="ElyzJCMLIEPiKHhhXCeB-8" target="ElyzJCMLIEPiKHhhXCeB-10" edge="1">
          <mxGeometry relative="1" as="geometry" />
        </mxCell>
        <mxCell id="ElyzJCMLIEPiKHhhXCeB-14" style="edgeStyle=orthogonalEdgeStyle;rounded=0;orthogonalLoop=1;jettySize=auto;html=1;" parent="1" source="ElyzJCMLIEPiKHhhXCeB-8" target="ElyzJCMLIEPiKHhhXCeB-11" edge="1">
          <mxGeometry relative="1" as="geometry" />
        </mxCell>
        <mxCell id="ElyzJCMLIEPiKHhhXCeB-15" style="edgeStyle=orthogonalEdgeStyle;rounded=0;orthogonalLoop=1;jettySize=auto;html=1;" parent="1" source="ElyzJCMLIEPiKHhhXCeB-8" target="ElyzJCMLIEPiKHhhXCeB-12" edge="1">
          <mxGeometry relative="1" as="geometry" />
        </mxCell>
        <mxCell id="ElyzJCMLIEPiKHhhXCeB-8" value="InsertRecords 请求" style="rounded=0;whiteSpace=wrap;html=1;fillColor=none;strokeColor=#000000;" parent="1" vertex="1">
          <mxGeometry x="7" y="41" width="120" height="60" as="geometry" />
        </mxCell>
        <mxCell id="ElyzJCMLIEPiKHhhXCeB-19" style="edgeStyle=orthogonalEdgeStyle;rounded=0;orthogonalLoop=1;jettySize=auto;html=1;entryX=0;entryY=0.5;entryDx=0;entryDy=0;" parent="1" source="ElyzJCMLIEPiKHhhXCeB-10" target="ElyzJCMLIEPiKHhhXCeB-16" edge="1">
          <mxGeometry relative="1" as="geometry" />
        </mxCell>
        <mxCell id="ElyzJCMLIEPiKHhhXCeB-10" value="FragmentInstance" style="rounded=0;whiteSpace=wrap;html=1;fillColor=none;strokeColor=#000000;" parent="1" vertex="1">
          <mxGeometry x="163" y="3" width="120" height="40" as="geometry" />
        </mxCell>
        <mxCell id="ElyzJCMLIEPiKHhhXCeB-20" style="edgeStyle=orthogonalEdgeStyle;rounded=0;orthogonalLoop=1;jettySize=auto;html=1;entryX=0;entryY=0.5;entryDx=0;entryDy=0;" parent="1" source="ElyzJCMLIEPiKHhhXCeB-11" target="ElyzJCMLIEPiKHhhXCeB-17" edge="1">
          <mxGeometry relative="1" as="geometry" />
        </mxCell>
        <mxCell id="ElyzJCMLIEPiKHhhXCeB-11" value="FragmentInstance" style="rounded=0;whiteSpace=wrap;html=1;fillColor=none;strokeColor=#000000;" parent="1" vertex="1">
          <mxGeometry x="163" y="51" width="120" height="40" as="geometry" />
        </mxCell>
        <mxCell id="ElyzJCMLIEPiKHhhXCeB-21" style="edgeStyle=orthogonalEdgeStyle;rounded=0;orthogonalLoop=1;jettySize=auto;html=1;entryX=0;entryY=0.5;entryDx=0;entryDy=0;" parent="1" source="ElyzJCMLIEPiKHhhXCeB-12" target="ElyzJCMLIEPiKHhhXCeB-18" edge="1">
          <mxGeometry relative="1" as="geometry" />
        </mxCell>
        <mxCell id="ElyzJCMLIEPiKHhhXCeB-12" value="FragmentInstance" style="rounded=0;whiteSpace=wrap;html=1;fillColor=none;strokeColor=#000000;" parent="1" vertex="1">
          <mxGeometry x="163" y="99" width="120" height="40" as="geometry" />
        </mxCell>
        <mxCell id="ElyzJCMLIEPiKHhhXCeB-30" style="edgeStyle=orthogonalEdgeStyle;rounded=0;orthogonalLoop=1;jettySize=auto;html=1;entryX=0;entryY=0.5;entryDx=0;entryDy=0;" parent="1" source="ElyzJCMLIEPiKHhhXCeB-16" target="ElyzJCMLIEPiKHhhXCeB-1" edge="1">
          <mxGeometry relative="1" as="geometry">
            <Array as="points">
              <mxPoint x="442" y="23" />
              <mxPoint x="442" y="71" />
            </Array>
          </mxGeometry>
        </mxCell>
        <mxCell id="ElyzJCMLIEPiKHhhXCeB-16" value="执行写入" style="shape=step;perimeter=stepPerimeter;whiteSpace=wrap;html=1;fixedSize=1;fillColor=none;strokeColor=#000000;" parent="1" vertex="1">
          <mxGeometry x="315" y="3" width="120" height="40" as="geometry" />
        </mxCell>
        <mxCell id="ElyzJCMLIEPiKHhhXCeB-28" style="edgeStyle=orthogonalEdgeStyle;rounded=0;orthogonalLoop=1;jettySize=auto;html=1;entryX=0;entryY=0.5;entryDx=0;entryDy=0;" parent="1" source="ElyzJCMLIEPiKHhhXCeB-17" target="ElyzJCMLIEPiKHhhXCeB-1" edge="1">
          <mxGeometry relative="1" as="geometry" />
        </mxCell>
        <mxCell id="ElyzJCMLIEPiKHhhXCeB-17" value="执行写入" style="shape=step;perimeter=stepPerimeter;whiteSpace=wrap;html=1;fixedSize=1;fillColor=none;strokeColor=#000000;" parent="1" vertex="1">
          <mxGeometry x="315" y="51" width="120" height="40" as="geometry" />
        </mxCell>
        <mxCell id="ElyzJCMLIEPiKHhhXCeB-31" style="edgeStyle=orthogonalEdgeStyle;rounded=0;orthogonalLoop=1;jettySize=auto;html=1;entryX=0;entryY=0.5;entryDx=0;entryDy=0;" parent="1" source="ElyzJCMLIEPiKHhhXCeB-18" target="ElyzJCMLIEPiKHhhXCeB-1" edge="1">
          <mxGeometry relative="1" as="geometry">
            <Array as="points">
              <mxPoint x="442" y="119" />
              <mxPoint x="442" y="71" />
            </Array>
          </mxGeometry>
        </mxCell>
        <mxCell id="ElyzJCMLIEPiKHhhXCeB-18" value="执行写入" style="shape=step;perimeter=stepPerimeter;whiteSpace=wrap;html=1;fixedSize=1;fillColor=none;strokeColor=#000000;" parent="1" vertex="1">
          <mxGeometry x="315" y="99" width="120" height="40" as="geometry" />
        </mxCell>
        <mxCell id="ElyzJCMLIEPiKHhhXCeB-32" value="&lt;font style=&quot;font-size: 15px;&quot;&gt;&lt;span&gt;监控系统&lt;/span&gt;&lt;/font&gt;" style="shape=process;whiteSpace=wrap;html=1;backgroundOutline=1;fillColor=none;strokeColor=#000000;fontStyle=0" parent="1" vertex="1">
          <mxGeometry x="515.5" y="156" width="161" height="72" as="geometry" />
        </mxCell>
        <mxCell id="ElyzJCMLIEPiKHhhXCeB-34" style="edgeStyle=orthogonalEdgeStyle;rounded=0;orthogonalLoop=1;jettySize=auto;html=1;" parent="1" source="ElyzJCMLIEPiKHhhXCeB-1" target="ElyzJCMLIEPiKHhhXCeB-32" edge="1">
          <mxGeometry relative="1" as="geometry" />
        </mxCell>
        <mxCell id="ElyzJCMLIEPiKHhhXCeB-1" value="" style="rounded=1;whiteSpace=wrap;html=1;fillColor=none;strokeColor=#000000;fontColor=#333333;" parent="1" vertex="1">
          <mxGeometry x="462" y="34" width="269" height="75" as="geometry" />
        </mxCell>
        <mxCell id="ElyzJCMLIEPiKHhhXCeB-3" value="&lt;font style=&quot;font-size: 15px;&quot;&gt;&lt;span&gt;InsertRecordsMetricsCollector&lt;/span&gt;&lt;/font&gt;" style="text;html=1;align=center;verticalAlign=middle;resizable=0;points=[];autosize=1;strokeColor=none;fillColor=none;fontStyle=0" parent="1" vertex="1">
          <mxGeometry x="487" y="28" width="219" height="30" as="geometry" />
        </mxCell>
        <mxCell id="ElyzJCMLIEPiKHhhXCeB-4" value="写入内存表延迟" style="text;html=1;align=center;verticalAlign=middle;resizable=0;points=[];autosize=1;strokeColor=none;fillColor=none;" parent="1" vertex="1">
          <mxGeometry x="486" y="87" width="102" height="26" as="geometry" />
        </mxCell>
        <mxCell id="ElyzJCMLIEPiKHhhXCeB-5" value="记录写前日志延迟" style="text;html=1;align=center;verticalAlign=middle;resizable=0;points=[];autosize=1;strokeColor=none;fillColor=none;" parent="1" vertex="1">
          <mxGeometry x="601" y="52" width="114" height="26" as="geometry" />
        </mxCell>
        <mxCell id="ElyzJCMLIEPiKHhhXCeB-6" value="更新内存缓存延迟" style="text;html=1;align=center;verticalAlign=middle;resizable=0;points=[];autosize=1;strokeColor=none;fillColor=none;" parent="1" vertex="1">
          <mxGeometry x="601" y="87" width="114" height="26" as="geometry" />
        </mxCell>
        <mxCell id="ElyzJCMLIEPiKHhhXCeB-7" value="获取锁延迟" style="text;html=1;align=center;verticalAlign=middle;resizable=0;points=[];autosize=1;strokeColor=none;fillColor=none;" parent="1" vertex="1">
          <mxGeometry x="498" y="60" width="78" height="26" as="geometry" />
        </mxCell>
        <mxCell id="ElyzJCMLIEPiKHhhXCeB-35" value="&lt;span&gt;统一更新&lt;/span&gt;" style="text;html=1;align=center;verticalAlign=middle;resizable=0;points=[];autosize=1;strokeColor=none;fillColor=none;fontStyle=0" parent="1" vertex="1">
          <mxGeometry x="607" y="118" width="66" height="26" as="geometry" />
        </mxCell>
      </root>
    </mxGraphModel>
  </diagram>
</mxfile>
